<svg xmlns="http://www.w3.org/2000/svg" width="200" height="200" viewBox="0 0 24 24" fill="none" stroke="#6c757d" stroke-width="1.5" stroke-linecap="round" stroke-linejoin="round">
    <!-- Shopping Cart -->
    <circle cx="8" cy="21" r="1" fill="#6c757d"/>
    <circle cx="19" cy="21" r="1" fill="#6c757d"/>
    <path d="M2.05 2.05h2l2.66 12.42a2 2 0 0 0 2 1.58h9.78a2 2 0 0 0 1.95-1.57l1.65-7.43H5.12"/>
    
    <!-- Empty State Elements -->
    <path d="M12 8v4" stroke="#dc3545"/>
    <path d="M10 10h4" stroke="#dc3545"/>
    
    <!-- Decorative Elements -->
    <path d="M4.5 15.5c-.83-.83-1.5-1.67-1.5-3C3 8.94 7.03 6 12 6c4.97 0 9 2.94 9 6.5 0 1.33-.67 2.17-1.5 3" stroke-dasharray="2 2"/>
</svg>